<svg id="svg" version="1.1" xmlns="http://www.w3.org/2000/svg" xmlns:xlink="http://www.w3.org/1999/xlink" width="400" height="400" viewBox="0, 0, 400,400"><g id="svgg"><path id="path0" d="M194.800 71.164 C 188.808 72.200,184.968 74.722,180.384 80.628 C 174.222 88.570,166.007 97.869,158.365 105.553 C 154.891 109.047,146.754 116.870,145.200 118.212 C 130.553 130.853,115.604 141.799,100.000 151.309 C 94.848 154.449,94.308 154.761,89.800 157.185 C 88.040 158.132,85.520 159.488,84.200 160.200 C 82.880 160.911,79.023 162.893,75.630 164.603 C 64.997 169.962,61.808 175.232,65.103 182.000 C 69.931 191.918,77.318 190.897,100.800 177.064 C 112.739 170.031,124.363 162.684,127.599 160.125 C 127.930 159.864,130.540 157.891,133.400 155.742 C 137.926 152.340,140.622 150.246,143.810 147.657 C 144.255 147.296,146.505 145.477,148.810 143.615 C 151.114 141.753,153.090 140.133,153.200 140.015 C 153.310 139.897,154.210 139.096,155.200 138.235 C 168.190 126.939,184.337 109.983,192.400 99.171 C 198.637 90.808,199.593 90.750,205.686 98.357 C 214.857 109.808,231.306 126.882,241.200 135.221 C 268.483 158.217,289.873 172.607,317.089 186.275 C 326.872 191.188,335.348 187.301,336.265 177.481 C 336.874 170.965,334.625 168.131,325.432 163.831 C 320.632 161.587,312.839 157.627,309.000 155.483 C 307.680 154.746,304.530 153.001,302.000 151.606 C 290.761 145.409,272.874 133.308,261.611 124.282 C 246.564 112.222,230.411 96.151,218.712 81.600 C 211.454 72.573,204.414 69.500,194.800 71.164 M139.600 160.867 C 131.537 163.174,131.227 177.921,139.182 180.694 C 141.544 181.517,258.493 181.414,260.838 180.586 C 267.868 178.106,268.481 164.714,261.718 161.354 C 259.963 160.482,142.583 160.014,139.600 160.867 M124.600 214.647 C 124.160 214.735,122.810 215.005,121.600 215.246 C 112.923 216.974,107.622 222.827,106.035 232.433 C 105.335 236.672,105.444 304.430,106.159 308.800 C 108.029 320.242,114.089 325.274,127.800 326.771 C 133.284 327.370,267.549 327.375,272.379 326.776 C 284.577 325.265,290.700 321.265,292.979 313.319 C 293.345 312.044,293.814 310.447,294.022 309.772 C 294.600 307.894,294.522 233.714,293.939 231.306 C 291.729 222.167,287.900 217.899,279.600 215.323 C 277.543 214.684,127.659 214.031,124.600 214.647 M266.954 234.868 C 272.175 236.352,271.983 234.984,271.980 270.600 L 271.977 301.000 271.087 302.740 C 270.497 303.895,269.592 304.836,268.399 305.540 L 266.600 306.600 200.000 306.600 C 126.872 306.600,132.405 306.781,130.105 304.317 C 128.036 302.102,128.009 301.659,128.004 270.446 C 127.999 236.484,127.976 236.666,132.493 235.067 C 134.746 234.270,264.175 234.078,266.954 234.868 " stroke="none" fill="#fbf9fa" fill-rule="evenodd"></path><path id="path1" d="M34.800 0.293 C 33.810 0.380,32.829 0.619,32.620 0.825 C 32.411 1.031,31.556 1.200,30.720 1.200 C 29.884 1.200,29.200 1.380,29.200 1.600 C 29.200 1.820,28.750 2.000,28.200 2.000 C 27.650 2.000,27.200 2.180,27.200 2.400 C 27.200 2.620,26.660 2.800,26.000 2.800 C 25.340 2.800,24.800 2.945,24.800 3.121 C 24.800 3.298,23.903 3.883,22.806 4.421 C 21.710 4.960,20.810 5.535,20.806 5.700 C 20.803 5.865,20.440 6.000,20.000 6.000 C 19.560 6.000,19.200 6.141,19.200 6.314 C 19.200 6.486,18.705 6.921,18.100 7.279 C 15.109 9.049,7.600 16.579,7.600 17.807 C 7.600 18.036,7.240 18.483,6.800 18.800 C 6.360 19.117,6.000 19.614,6.000 19.905 C 6.000 20.196,5.654 20.804,5.232 21.258 C 4.810 21.711,4.230 22.874,3.945 23.841 C 3.659 24.808,3.285 25.600,3.113 25.600 C 2.941 25.600,2.800 25.949,2.800 26.376 C 2.800 26.803,2.620 27.264,2.400 27.400 C 2.180 27.536,2.000 28.087,2.000 28.624 C 2.000 29.161,1.820 29.600,1.600 29.600 C 1.380 29.600,1.200 30.215,1.200 30.967 C 1.200 31.718,0.975 32.408,0.700 32.500 C -0.036 32.745,-0.036 366.924,0.700 367.660 C 0.975 367.935,1.200 368.653,1.200 369.256 C 1.200 369.859,1.380 370.464,1.600 370.600 C 1.820 370.736,2.000 371.287,2.000 371.824 C 2.000 372.361,2.180 372.800,2.400 372.800 C 2.620 372.800,2.800 373.072,2.800 373.405 C 2.800 373.738,2.960 374.323,3.156 374.705 C 3.352 375.087,3.920 376.255,4.419 377.300 C 4.918 378.345,5.477 379.200,5.663 379.200 C 5.848 379.200,6.000 379.520,6.000 379.912 C 6.000 380.303,6.360 380.883,6.800 381.200 C 7.240 381.517,7.600 382.012,7.600 382.300 C 7.600 383.468,16.532 392.400,17.701 392.400 C 17.988 392.400,18.483 392.760,18.800 393.200 C 19.117 393.640,19.697 394.000,20.088 394.000 C 20.480 394.000,20.800 394.159,20.800 394.353 C 20.800 394.548,21.115 394.810,21.500 394.936 C 21.885 395.062,22.970 395.623,23.911 396.182 C 24.852 396.742,25.977 397.200,26.411 397.200 C 26.845 397.200,27.200 397.380,27.200 397.600 C 27.200 397.820,27.639 398.000,28.176 398.000 C 28.713 398.000,29.264 398.180,29.400 398.400 C 29.536 398.620,30.252 398.800,30.990 398.800 C 31.729 398.800,32.408 399.025,32.500 399.300 C 32.745 400.036,366.924 400.036,367.660 399.300 C 367.935 399.025,368.653 398.800,369.256 398.800 C 369.859 398.800,370.464 398.620,370.600 398.400 C 370.736 398.180,371.287 398.000,371.824 398.000 C 372.361 398.000,372.800 397.820,372.800 397.600 C 372.800 397.380,373.143 397.200,373.562 397.200 C 374.469 397.200,377.600 395.592,377.600 395.126 C 377.600 394.947,377.960 394.800,378.400 394.800 C 378.840 394.800,379.200 394.620,379.200 394.400 C 379.200 394.180,379.520 394.000,379.912 394.000 C 380.303 394.000,380.883 393.640,381.200 393.200 C 381.517 392.760,382.012 392.400,382.299 392.400 C 383.559 392.400,392.400 383.547,392.400 382.285 C 392.400 382.006,392.760 381.517,393.200 381.200 C 393.640 380.883,394.000 380.303,394.000 379.912 C 394.000 379.520,394.147 379.200,394.326 379.200 C 394.735 379.200,396.400 376.119,396.400 375.362 C 396.400 375.053,396.580 374.800,396.800 374.800 C 397.020 374.800,397.200 374.350,397.200 373.800 C 397.200 373.250,397.380 372.800,397.600 372.800 C 397.820 372.800,398.000 372.361,398.000 371.824 C 398.000 371.287,398.180 370.736,398.400 370.600 C 398.620 370.464,398.800 369.859,398.800 369.256 C 398.800 368.653,399.025 367.935,399.300 367.660 C 400.036 366.924,400.036 32.745,399.300 32.500 C 399.025 32.408,398.800 31.718,398.800 30.967 C 398.800 30.215,398.620 29.600,398.400 29.600 C 398.180 29.600,398.000 29.060,398.000 28.400 C 398.000 27.740,397.820 27.200,397.600 27.200 C 397.380 27.200,397.200 26.840,397.200 26.400 C 397.200 25.960,397.020 25.600,396.800 25.600 C 396.580 25.600,396.400 25.257,396.400 24.838 C 396.400 23.931,394.792 20.800,394.326 20.800 C 394.147 20.800,394.000 20.480,394.000 20.088 C 394.000 19.697,393.640 19.117,393.200 18.800 C 392.760 18.483,392.400 18.035,392.400 17.804 C 392.400 16.980,386.645 10.400,385.924 10.400 C 385.760 10.400,385.034 9.815,384.310 9.100 C 383.586 8.385,382.500 7.545,381.897 7.232 C 381.294 6.920,380.800 6.515,380.800 6.332 C 380.800 6.150,380.440 6.000,380.000 6.000 C 379.560 6.000,379.197 5.865,379.194 5.700 C 379.190 5.535,378.290 4.960,377.194 4.421 C 376.097 3.883,375.200 3.298,375.200 3.121 C 375.200 2.945,374.660 2.800,374.000 2.800 C 373.340 2.800,372.800 2.620,372.800 2.400 C 372.800 2.180,372.451 2.000,372.024 2.000 C 371.597 2.000,371.136 1.820,371.000 1.600 C 370.864 1.380,370.058 1.200,369.210 1.200 C 368.331 1.200,367.595 0.985,367.500 0.700 C 367.342 0.227,40.121 -0.174,34.800 0.293 M206.052 70.678 C 207.838 71.190,212.151 73.255,212.333 73.685 C 212.407 73.858,212.677 74.002,212.933 74.005 C 213.466 74.012,217.128 77.731,219.205 80.375 C 231.412 95.913,244.497 108.931,264.044 124.985 C 265.594 126.258,272.435 131.340,274.600 132.827 C 275.700 133.582,276.690 134.297,276.800 134.416 C 277.363 135.024,286.807 141.200,287.173 141.200 C 287.408 141.200,287.600 141.380,287.600 141.600 C 287.600 141.820,287.836 142.000,288.125 142.000 C 288.413 142.000,289.036 142.360,289.508 142.800 C 289.980 143.240,290.477 143.600,290.611 143.600 C 290.746 143.600,291.641 144.140,292.600 144.800 C 293.559 145.460,294.459 146.000,294.600 146.000 C 294.741 146.000,295.641 146.540,296.600 147.200 C 297.559 147.860,298.418 148.400,298.507 148.400 C 298.648 148.400,302.605 150.571,310.200 154.814 C 315.250 157.635,317.893 159.015,324.660 162.367 C 335.177 167.576,337.173 169.768,337.191 176.125 C 337.205 180.889,333.889 187.600,331.522 187.600 C 331.303 187.600,330.565 187.998,329.882 188.484 C 327.504 190.177,321.400 189.762,317.176 187.620 C 311.774 184.881,303.937 180.743,302.200 179.713 C 301.320 179.192,300.285 178.662,299.900 178.536 C 299.515 178.410,299.200 178.148,299.200 177.953 C 299.200 177.759,299.024 177.600,298.809 177.600 C 297.828 177.600,275.174 163.177,274.867 162.356 C 274.793 162.160,274.570 162.000,274.370 162.000 C 274.170 162.000,273.218 161.415,272.255 160.700 C 271.291 159.985,269.264 158.511,267.751 157.425 C 260.434 152.171,248.487 143.031,247.600 142.007 C 247.490 141.880,245.696 140.342,243.613 138.588 C 233.719 130.260,219.073 115.892,212.006 107.580 C 210.799 106.161,209.629 104.804,209.406 104.563 C 209.183 104.323,208.550 103.534,208.000 102.810 C 207.450 102.086,206.730 101.173,206.400 100.780 C 204.976 99.088,204.534 98.522,203.603 97.200 C 200.010 92.096,198.194 92.515,193.198 99.600 C 192.656 100.370,191.997 101.270,191.736 101.600 C 191.474 101.930,190.127 103.640,188.743 105.400 C 182.971 112.738,176.258 119.868,165.949 129.612 C 160.329 134.925,155.326 139.591,154.170 140.600 C 152.017 142.478,150.991 143.336,148.200 145.588 C 146.440 147.009,144.910 148.277,144.800 148.407 C 144.285 149.014,129.926 159.600,129.618 159.600 C 129.425 159.600,129.207 159.747,129.133 159.928 C 129.060 160.108,127.830 161.039,126.400 161.998 C 124.970 162.956,123.710 163.869,123.600 164.028 C 123.164 164.655,107.034 174.831,103.000 177.023 C 101.305 177.945,100.192 178.608,100.000 178.813 C 99.237 179.624,82.288 188.104,79.326 189.155 C 70.941 192.132,62.725 185.697,63.297 176.600 C 63.621 171.464,66.239 168.348,73.200 164.815 C 77.285 162.742,79.904 161.349,83.600 159.284 C 84.590 158.730,86.300 157.793,87.400 157.200 C 89.256 156.200,90.411 155.561,94.900 153.049 C 97.459 151.617,105.096 146.892,107.678 145.143 C 108.931 144.294,110.146 143.600,110.378 143.600 C 110.610 143.600,110.800 143.450,110.800 143.268 C 110.800 143.085,111.295 142.680,111.900 142.368 C 112.505 142.056,113.090 141.696,113.200 141.568 C 113.310 141.440,114.822 140.381,116.560 139.215 C 122.731 135.074,132.381 127.924,134.644 125.814 C 135.186 125.309,136.603 124.089,140.003 121.200 C 141.427 119.990,143.208 118.460,143.962 117.800 C 149.495 112.953,163.977 98.626,167.616 94.400 C 169.037 92.750,170.292 91.310,170.405 91.200 C 170.581 91.029,172.766 88.380,174.800 85.872 C 175.130 85.466,175.670 84.803,176.000 84.400 C 176.330 83.997,177.590 82.365,178.800 80.772 C 181.825 76.790,184.374 74.328,186.665 73.174 C 187.729 72.638,188.690 72.102,188.800 71.983 C 188.910 71.864,189.810 71.530,190.800 71.241 C 191.790 70.952,192.960 70.561,193.400 70.373 C 194.469 69.917,204.218 70.152,206.052 70.678 M261.831 160.359 C 262.729 160.766,263.852 161.617,264.327 162.250 C 264.802 162.882,265.373 163.617,265.596 163.883 C 265.818 164.149,266.000 164.644,266.000 164.983 C 266.000 165.322,266.160 165.600,266.356 165.600 C 266.708 165.600,267.024 166.952,267.461 170.333 C 268.018 174.628,265.420 179.725,261.800 181.443 L 259.800 182.392 199.953 182.396 C 140.639 182.400,140.089 182.393,138.145 181.585 C 130.819 178.540,130.557 164.185,137.762 160.594 L 139.757 159.600 199.979 159.609 C 257.736 159.617,260.267 159.648,261.831 160.359 M276.494 213.573 C 277.432 213.779,279.077 214.144,280.149 214.385 C 284.320 215.323,291.600 220.513,291.600 222.549 C 291.600 222.907,291.736 223.200,291.902 223.200 C 292.069 223.200,292.440 223.785,292.729 224.500 C 293.017 225.215,293.421 226.113,293.626 226.495 C 293.832 226.877,294.000 227.606,294.000 228.115 C 294.000 228.624,294.163 229.211,294.363 229.420 C 295.769 230.892,295.769 312.000,294.363 312.000 C 294.163 312.000,294.000 312.452,294.000 313.005 C 294.000 313.558,293.840 314.323,293.644 314.705 C 293.448 315.087,292.863 316.288,292.344 317.373 C 291.135 319.901,287.901 323.135,285.373 324.344 C 284.288 324.863,283.087 325.448,282.705 325.644 C 282.323 325.840,281.684 326.000,281.285 326.000 C 280.886 326.000,280.389 326.163,280.180 326.363 C 279.971 326.563,278.810 326.856,277.600 327.014 C 273.755 327.517,124.896 327.392,122.400 326.884 C 121.190 326.638,119.613 326.317,118.895 326.172 C 118.177 326.027,117.492 325.749,117.371 325.554 C 117.251 325.359,116.891 325.200,116.571 325.200 C 114.421 325.200,109.397 320.506,107.582 316.800 C 107.097 315.810,106.542 314.687,106.350 314.305 C 106.157 313.923,106.000 313.169,106.000 312.629 C 106.000 312.089,105.846 311.552,105.658 311.436 C 104.841 310.931,104.635 302.524,104.640 269.800 C 104.644 235.411,104.738 232.523,105.992 228.200 C 106.247 227.320,106.554 226.195,106.674 225.700 C 106.795 225.205,107.052 224.800,107.247 224.800 C 107.441 224.800,107.600 224.607,107.600 224.372 C 107.600 221.488,115.065 215.503,120.000 214.431 C 120.990 214.216,122.520 213.873,123.400 213.670 C 125.560 213.172,274.229 213.078,276.494 213.573 M132.411 236.045 C 131.356 236.466,130.509 237.301,129.700 238.715 C 129.058 239.837,128.960 302.000,129.600 302.000 C 129.820 302.000,130.000 302.283,130.000 302.629 C 130.000 303.795,131.767 304.884,134.600 305.464 C 135.480 305.644,164.910 305.791,200.000 305.791 C 235.090 305.791,264.520 305.644,265.400 305.464 C 268.170 304.897,269.332 304.192,270.300 302.490 C 271.191 300.924,270.952 239.764,270.049 238.200 C 268.428 235.392,274.037 235.598,200.000 235.626 C 157.197 235.642,133.047 235.792,132.411 236.045 " stroke="none" fill="#dc2c44" fill-rule="evenodd"></path><path id="path2" d="M210.600 73.065 C 211.622 74.033,214.133 75.671,213.527 74.974 C 213.157 74.548,212.257 73.859,211.527 73.443 C 210.797 73.027,210.380 72.857,210.600 73.065 M182.800 76.600 C 181.828 77.590,181.123 78.400,181.233 78.400 C 181.343 78.400,182.228 77.590,183.200 76.600 C 184.172 75.610,184.877 74.800,184.767 74.800 C 184.657 74.800,183.772 75.610,182.800 76.600 M214.400 75.725 C 214.400 75.794,214.985 76.379,215.700 77.025 L 217.000 78.200 215.825 76.900 C 214.730 75.688,214.400 75.416,214.400 75.725 M218.000 80.000 C 218.697 80.880,219.357 81.600,219.467 81.600 C 219.577 81.600,219.097 80.880,218.400 80.000 C 217.703 79.120,217.043 78.400,216.933 78.400 C 216.823 78.400,217.303 79.120,218.000 80.000 M178.744 81.500 C 177.593 82.889,177.106 83.600,177.304 83.600 C 177.414 83.600,177.986 82.970,178.573 82.200 C 179.663 80.771,179.795 80.232,178.744 81.500 M175.775 85.300 L 174.600 86.600 175.900 85.425 C 177.112 84.330,177.384 84.000,177.075 84.000 C 177.006 84.000,176.421 84.585,175.775 85.300 M221.200 84.125 C 221.200 84.194,221.785 84.779,222.500 85.425 L 223.800 86.600 222.625 85.300 C 221.530 84.088,221.200 83.816,221.200 84.125 M169.606 92.594 C 168.863 93.361,168.332 94.050,168.427 94.125 C 168.522 94.200,169.206 93.573,169.946 92.731 C 171.629 90.818,171.412 90.731,169.606 92.594 M229.200 93.325 C 229.200 93.394,229.785 93.979,230.500 94.625 L 231.800 95.800 230.625 94.500 C 229.530 93.288,229.200 93.016,229.200 93.325 M157.795 105.300 L 152.200 111.000 157.900 105.405 C 163.195 100.208,163.781 99.600,163.495 99.600 C 163.437 99.600,160.872 102.165,157.795 105.300 M239.400 104.000 C 241.812 106.420,243.876 108.400,243.986 108.400 C 244.096 108.400,242.212 106.420,239.800 104.000 C 237.388 101.580,235.324 99.600,235.214 99.600 C 235.104 99.600,236.988 101.580,239.400 104.000 M210.800 105.725 C 210.800 105.794,211.385 106.379,212.100 107.025 L 213.400 108.200 212.225 106.900 C 211.130 105.688,210.800 105.416,210.800 105.725 M183.381 110.900 L 181.800 112.600 183.500 111.019 C 185.081 109.548,185.384 109.200,185.081 109.200 C 185.016 109.200,184.251 109.965,183.381 110.900 M215.583 110.900 C 217.241 112.666,217.600 112.984,217.600 112.683 C 217.600 112.619,216.745 111.764,215.700 110.783 L 213.800 109.000 215.583 110.900 M247.374 111.493 C 248.240 112.424,249.035 113.099,249.141 112.993 C 249.247 112.887,249.256 112.755,249.162 112.700 C 249.068 112.645,248.273 111.970,247.396 111.201 L 245.800 109.801 247.374 111.493 M147.787 114.900 L 145.400 117.400 147.900 115.013 C 150.222 112.795,150.583 112.400,150.287 112.400 C 150.226 112.400,149.101 113.525,147.787 114.900 M180.000 114.600 C 179.028 115.590,178.323 116.400,178.433 116.400 C 178.543 116.400,179.428 115.590,180.400 114.600 C 181.372 113.610,182.077 112.800,181.967 112.800 C 181.857 112.800,180.972 113.610,180.000 114.600 M222.200 118.000 C 224.833 120.640,227.077 122.800,227.187 122.800 C 227.297 122.800,225.233 120.640,222.600 118.000 C 219.967 115.360,217.723 113.200,217.613 113.200 C 217.503 113.200,219.567 115.360,222.200 118.000 M249.716 113.455 C 250.061 114.025,255.600 118.952,255.600 118.690 C 255.600 118.585,254.214 117.261,252.520 115.749 C 250.826 114.237,249.564 113.205,249.716 113.455 M142.400 119.659 L 139.800 122.091 142.302 120.004 C 144.509 118.163,145.512 117.172,145.124 117.213 C 145.056 117.221,143.830 118.321,142.400 119.659 M172.391 122.700 L 169.000 126.200 172.500 122.809 C 175.751 119.659,176.182 119.200,175.891 119.200 C 175.831 119.200,174.256 120.775,172.391 122.700 M230.800 126.600 C 232.660 128.470,234.272 130.000,234.382 130.000 C 234.492 130.000,233.060 128.470,231.200 126.600 C 229.340 124.730,227.728 123.200,227.618 123.200 C 227.508 123.200,228.940 124.730,230.800 126.600 M236.383 131.700 C 237.364 132.745,238.219 133.600,238.283 133.600 C 238.584 133.600,238.266 133.241,236.500 131.583 L 234.600 129.800 236.383 131.700 M161.978 132.700 L 160.600 134.200 162.100 132.822 C 163.496 131.538,163.784 131.200,163.478 131.200 C 163.412 131.200,162.737 131.875,161.978 132.700 M157.775 136.500 L 156.600 137.800 157.900 136.625 C 158.615 135.979,159.200 135.394,159.200 135.325 C 159.200 135.016,158.870 135.288,157.775 136.500 M241.600 136.125 C 241.600 136.194,242.185 136.779,242.900 137.425 L 244.200 138.600 243.025 137.300 C 241.930 136.088,241.600 135.816,241.600 136.125 M153.578 140.300 L 152.200 141.800 153.700 140.422 C 154.525 139.663,155.200 138.988,155.200 138.922 C 155.200 138.616,154.862 138.904,153.578 140.300 M244.433 138.900 C 244.525 138.955,245.140 139.450,245.800 140.000 L 247.000 141.000 246.030 139.900 C 245.497 139.295,244.882 138.800,244.664 138.800 C 244.445 138.800,244.342 138.845,244.433 138.900 M285.000 140.607 C 285.440 140.966,286.160 141.435,286.600 141.651 L 287.400 142.044 286.600 141.393 C 286.160 141.034,285.440 140.565,285.000 140.349 L 284.200 139.956 285.000 140.607 M251.000 144.211 C 251.880 145.009,254.400 147.009,256.600 148.655 C 261.319 152.185,259.577 150.653,253.600 146.017 C 251.290 144.225,250.120 143.412,251.000 144.211 M147.205 145.442 C 143.692 148.404,143.268 148.944,146.270 146.631 C 148.470 144.937,150.404 143.153,149.962 143.227 C 149.873 143.242,148.632 144.238,147.205 145.442 M292.600 145.407 C 293.040 145.766,293.760 146.235,294.200 146.451 L 295.000 146.844 294.200 146.193 C 293.760 145.834,293.040 145.365,292.600 145.149 L 291.800 144.756 292.600 145.407 M104.500 147.646 C 103.137 148.519,102.695 149.106,103.900 148.443 C 104.818 147.939,106.256 146.827,106.000 146.819 C 105.890 146.816,105.215 147.188,104.500 147.646 M302.000 150.984 C 302.000 151.094,302.720 151.551,303.600 152.000 C 304.480 152.449,305.200 152.726,305.200 152.616 C 305.200 152.506,304.480 152.049,303.600 151.600 C 302.720 151.151,302.000 150.874,302.000 150.984 M260.800 151.725 C 260.800 151.824,261.461 152.409,262.268 153.025 C 263.076 153.641,263.611 153.941,263.456 153.691 C 263.140 153.179,260.800 151.447,260.800 151.725 M95.896 152.950 C 93.975 154.131,93.438 154.689,95.000 153.881 C 96.254 153.233,97.945 152.026,97.600 152.025 C 97.490 152.025,96.723 152.441,95.896 152.950 M264.000 154.125 C 264.000 154.224,264.661 154.809,265.468 155.425 C 266.276 156.041,266.811 156.341,266.656 156.091 C 266.340 155.579,264.000 153.847,264.000 154.125 M309.200 154.979 C 309.200 155.089,309.740 155.459,310.400 155.800 C 311.060 156.141,311.600 156.331,311.600 156.221 C 311.600 156.111,311.060 155.741,310.400 155.400 C 309.740 155.059,309.200 154.869,309.200 154.979 M90.700 155.829 C 89.205 156.640,89.296 156.978,90.800 156.200 C 91.460 155.859,92.000 155.494,92.000 155.390 C 92.000 155.132,91.957 155.147,90.700 155.829 M270.000 158.546 C 270.000 158.656,270.540 159.130,271.200 159.600 C 271.860 160.070,272.400 160.364,272.400 160.254 C 272.400 160.144,271.860 159.670,271.200 159.200 C 270.540 158.730,270.000 158.436,270.000 158.546 M138.800 160.406 C 138.378 160.682,138.615 160.723,139.600 160.542 C 141.325 160.225,141.651 159.998,140.367 160.006 C 139.835 160.009,139.130 160.189,138.800 160.406 M116.900 167.646 C 115.537 168.519,115.095 169.106,116.300 168.443 C 117.218 167.939,118.656 166.827,118.400 166.819 C 118.290 166.816,117.615 167.188,116.900 167.646 M266.920 171.200 C 266.920 172.410,266.995 172.905,267.087 172.300 C 267.178 171.695,267.178 170.705,267.087 170.100 C 266.995 169.495,266.920 169.990,266.920 171.200 M291.000 172.596 C 291.894 173.339,294.428 174.709,293.800 174.110 C 293.580 173.900,292.680 173.324,291.800 172.830 C 290.920 172.335,290.560 172.230,291.000 172.596 M106.300 174.229 C 104.805 175.040,104.896 175.378,106.400 174.600 C 107.060 174.259,107.600 173.894,107.600 173.790 C 107.600 173.532,107.557 173.547,106.300 174.229 M295.200 175.164 C 295.750 175.614,296.380 175.983,296.600 175.985 C 297.028 175.988,296.305 175.434,295.000 174.760 C 294.469 174.485,294.536 174.621,295.200 175.164 M99.500 178.229 C 98.005 179.040,98.096 179.378,99.600 178.600 C 100.260 178.259,100.800 177.894,100.800 177.790 C 100.800 177.532,100.757 177.547,99.500 178.229 M136.487 180.100 C 137.106 180.705,137.835 181.195,138.106 181.188 C 138.378 181.181,138.240 180.977,137.800 180.733 C 137.360 180.490,136.631 180.000,136.181 179.645 C 135.730 179.290,135.868 179.495,136.487 180.100 M96.300 180.027 C 95.475 180.463,94.800 180.908,94.800 181.018 C 94.800 181.127,95.520 180.849,96.400 180.400 C 97.280 179.951,98.000 179.497,98.000 179.392 C 98.000 179.130,97.997 179.131,96.300 180.027 M304.000 180.188 C 304.000 180.298,305.080 180.934,306.400 181.600 C 307.720 182.266,308.800 182.722,308.800 182.612 C 308.800 182.502,307.720 181.866,306.400 181.200 C 305.080 180.534,304.000 180.078,304.000 180.188 M139.515 181.672 C 139.892 181.821,167.110 181.914,200.000 181.877 C 232.890 181.841,253.500 181.764,245.800 181.706 C 211.372 181.449,138.894 181.426,139.515 181.672 M90.700 183.026 C 89.655 183.570,88.800 184.105,88.800 184.214 C 88.800 184.324,89.700 183.957,90.800 183.400 C 91.900 182.843,92.800 182.300,92.800 182.193 C 92.800 181.929,92.836 181.914,90.700 183.026 M310.800 183.787 C 310.800 183.897,311.700 184.443,312.800 185.000 C 313.900 185.557,314.800 185.923,314.800 185.813 C 314.800 185.703,313.900 185.157,312.800 184.600 C 311.700 184.043,310.800 183.677,310.800 183.787 M86.700 185.029 C 85.149 185.870,85.325 186.161,86.900 185.359 C 88.408 184.593,88.675 184.394,88.167 184.416 C 87.965 184.425,87.305 184.701,86.700 185.029 M332.975 185.700 L 331.800 187.000 333.100 185.825 C 333.815 185.179,334.400 184.594,334.400 184.525 C 334.400 184.216,334.070 184.488,332.975 185.700 M66.400 185.325 C 66.400 185.394,66.985 185.979,67.700 186.625 L 69.000 187.800 67.825 186.500 C 66.730 185.288,66.400 185.016,66.400 185.325 M320.421 188.821 C 320.955 189.160,323.942 189.381,323.567 189.055 C 323.475 188.975,322.599 188.808,321.621 188.682 C 320.470 188.535,320.046 188.584,320.421 188.821 M164.100 213.500 C 183.845 213.557,216.155 213.557,235.900 213.500 C 255.645 213.443,239.490 213.396,200.000 213.396 C 160.510 213.396,144.355 213.443,164.100 213.500 M276.100 214.276 C 276.485 214.376,277.115 214.376,277.500 214.276 C 277.885 214.175,277.570 214.093,276.800 214.093 C 276.030 214.093,275.715 214.175,276.100 214.276 M115.900 216.229 C 114.349 217.070,114.525 217.361,116.100 216.559 C 117.608 215.793,117.875 215.594,117.367 215.616 C 117.165 215.625,116.505 215.901,115.900 216.229 M285.200 216.906 C 285.200 216.994,285.965 217.674,286.900 218.417 C 287.835 219.160,288.346 219.452,288.036 219.065 C 287.451 218.337,285.200 216.623,285.200 216.906 M111.768 219.354 C 110.466 220.538,109.077 222.113,108.683 222.854 C 108.071 224.001,108.067 224.052,108.653 223.200 C 109.031 222.650,110.504 221.075,111.926 219.700 C 115.098 216.634,114.998 216.416,111.768 219.354 M294.493 232.400 C 294.493 233.170,294.575 233.485,294.676 233.100 C 294.776 232.715,294.776 232.085,294.676 231.700 C 294.575 231.315,294.493 231.630,294.493 232.400 M105.293 233.600 C 105.293 234.370,105.375 234.685,105.476 234.300 C 105.576 233.915,105.576 233.285,105.476 232.900 C 105.375 232.515,105.293 232.830,105.293 233.600 M294.909 237.200 C 294.909 238.190,294.987 238.595,295.082 238.100 C 295.178 237.605,295.178 236.795,295.082 236.300 C 294.987 235.805,294.909 236.210,294.909 237.200 M128.589 270.800 C 128.589 286.090,128.639 292.345,128.700 284.700 C 128.761 277.055,128.761 264.545,128.700 256.900 C 128.639 249.255,128.589 255.510,128.589 270.800 M271.293 299.600 C 271.293 300.370,271.375 300.685,271.476 300.300 C 271.576 299.915,271.576 299.285,271.476 298.900 C 271.375 298.515,271.293 298.830,271.293 299.600 M294.914 304.600 C 294.917 305.700,294.995 306.103,295.087 305.495 C 295.179 304.886,295.177 303.986,295.082 303.495 C 294.987 303.003,294.911 303.500,294.914 304.600 M105.309 306.800 C 105.309 307.790,105.387 308.195,105.482 307.700 C 105.578 307.205,105.578 306.395,105.482 305.900 C 105.387 305.405,105.309 305.810,105.309 306.800 M167.500 306.300 C 185.375 306.358,214.625 306.358,232.500 306.300 C 250.375 306.242,235.750 306.195,200.000 306.195 C 164.250 306.195,149.625 306.242,167.500 306.300 M106.832 314.320 C 106.796 314.898,107.907 317.200,108.221 317.200 C 108.331 317.200,108.171 316.705,107.865 316.100 C 107.560 315.495,107.209 314.730,107.086 314.400 C 106.936 313.997,106.853 313.971,106.832 314.320 M288.800 321.000 C 287.828 321.990,287.123 322.800,287.233 322.800 C 287.343 322.800,288.228 321.990,289.200 321.000 C 290.172 320.010,290.877 319.200,290.767 319.200 C 290.657 319.200,289.772 320.010,288.800 321.000 M113.686 323.400 C 114.495 323.950,115.299 324.400,115.472 324.400 C 115.644 324.400,115.123 323.950,114.314 323.400 C 113.505 322.850,112.701 322.400,112.528 322.400 C 112.356 322.400,112.877 322.850,113.686 323.400 M163.868 327.500 C 183.706 327.557,216.286 327.557,236.268 327.500 C 256.251 327.443,240.020 327.396,200.200 327.396 C 160.380 327.396,144.031 327.443,163.868 327.500 " stroke="none" fill="#e87988" fill-rule="evenodd"></path><path id="path3" d="M194.604 70.751 C 193.946 70.891,196.014 71.006,199.200 71.006 C 202.386 71.006,204.454 70.891,203.796 70.751 C 203.138 70.610,201.070 70.495,199.200 70.495 C 197.330 70.495,195.262 70.610,194.604 70.751 M190.929 71.730 C 190.229 71.989,189.509 72.364,189.329 72.564 C 189.134 72.779,189.326 72.802,189.800 72.620 C 190.240 72.451,191.185 72.144,191.900 71.938 C 193.201 71.562,193.641 71.173,192.700 71.230 C 192.425 71.247,191.628 71.472,190.929 71.730 M206.000 71.621 C 212.384 74.411,213.855 75.585,219.197 82.157 C 223.583 87.551,223.809 87.815,228.718 93.269 C 230.633 95.397,232.373 97.152,232.585 97.169 C 232.797 97.186,232.151 96.345,231.150 95.300 C 228.284 92.307,221.629 84.570,218.264 80.317 C 214.410 75.446,209.972 72.174,206.200 71.423 C 205.046 71.193,205.039 71.200,206.000 71.621 M186.593 73.855 C 184.193 75.444,182.587 77.054,179.665 80.800 C 178.206 82.670,175.164 86.405,172.905 89.100 C 170.646 91.795,168.933 93.992,169.099 93.982 C 169.462 93.961,176.855 85.210,180.743 80.200 C 183.574 76.551,185.158 75.063,187.503 73.850 C 188.754 73.203,189.134 72.800,188.493 72.800 C 188.324 72.800,187.469 73.275,186.593 73.855 M196.341 94.300 C 195.597 95.125,194.451 96.520,193.794 97.400 C 193.137 98.280,192.420 99.207,192.200 99.461 C 191.980 99.714,190.450 101.598,188.800 103.646 C 180.035 114.526,166.818 128.132,155.200 138.235 C 154.210 139.096,153.310 139.897,153.200 140.015 C 153.090 140.133,151.114 141.753,148.810 143.615 C 146.505 145.477,144.255 147.296,143.810 147.657 C 139.025 151.543,128.834 159.317,127.677 159.965 C 127.308 160.171,127.101 160.434,127.215 160.549 C 127.613 160.947,147.911 145.290,153.810 140.034 C 171.892 123.925,182.422 112.827,194.379 97.278 C 199.217 90.987,199.119 90.952,208.454 102.330 C 233.156 132.435,271.386 162.724,311.471 183.947 C 321.987 189.515,325.172 190.220,329.647 187.967 C 332.530 186.515,336.001 182.612,336.000 180.822 C 336.000 180.480,335.623 180.960,335.163 181.890 C 331.761 188.762,325.208 190.352,317.089 186.275 C 289.873 172.607,268.483 158.217,241.200 135.221 C 236.523 131.279,223.975 119.066,218.577 113.200 C 213.231 107.392,209.568 103.186,206.385 99.200 C 200.606 91.965,199.106 91.233,196.341 94.300 M165.200 97.830 C 159.273 104.487,147.836 115.408,138.800 123.038 C 125.681 134.115,104.739 148.625,91.800 155.601 C 86.565 158.424,84.718 159.424,82.400 160.691 C 81.190 161.353,77.995 163.010,75.300 164.375 C 72.605 165.739,70.400 166.927,70.400 167.015 C 70.400 167.303,77.990 163.557,84.200 160.202 C 85.520 159.490,88.040 158.132,89.800 157.185 C 107.095 147.883,127.247 133.707,145.200 118.212 C 148.387 115.461,158.408 105.612,163.379 100.345 C 168.600 94.812,168.962 94.400,168.581 94.430 C 168.372 94.447,166.850 95.977,165.200 97.830 M238.600 103.557 C 253.828 119.053,269.498 131.343,293.470 146.591 C 296.218 148.340,307.533 154.800,307.847 154.800 C 307.912 154.800,308.916 155.361,310.079 156.047 C 312.530 157.492,325.006 163.794,326.662 164.424 C 328.802 165.237,327.341 164.425,320.582 161.045 C 288.476 144.987,258.050 123.376,237.374 101.944 C 235.599 100.105,233.799 98.342,233.374 98.026 C 232.948 97.710,235.300 100.200,238.600 103.557 M170.500 160.300 C 186.725 160.358,213.275 160.358,229.500 160.300 C 245.725 160.242,232.450 160.195,200.000 160.195 C 167.550 160.195,154.275 160.242,170.500 160.300 M138.155 160.973 C 136.186 161.830,133.591 165.200,133.604 166.884 C 133.606 167.168,134.037 166.479,134.561 165.353 C 135.605 163.111,137.431 161.486,139.600 160.870 C 140.371 160.651,140.640 160.463,140.200 160.452 C 139.760 160.441,138.840 160.675,138.155 160.973 M260.352 160.826 C 262.318 161.442,263.473 162.301,264.439 163.862 C 264.908 164.621,265.380 165.153,265.489 165.044 C 266.266 164.267,262.356 160.894,260.334 160.598 L 259.000 160.403 260.352 160.826 M125.544 161.623 C 124.650 162.402,124.646 162.423,125.478 162.020 C 125.960 161.787,126.466 161.417,126.601 161.198 C 126.995 160.562,126.563 160.735,125.544 161.623 M123.780 162.770 C 123.281 163.256,113.281 169.604,108.200 172.660 C 78.696 190.406,71.823 192.240,66.185 183.868 C 65.423 182.736,64.801 181.988,64.802 182.205 C 64.806 183.062,67.924 186.669,69.682 187.850 C 74.411 191.030,80.077 189.270,98.297 178.963 C 109.947 172.372,125.645 162.400,124.369 162.400 C 124.254 162.400,123.989 162.566,123.780 162.770 M265.612 166.000 C 265.612 166.330,265.787 166.870,266.000 167.200 C 266.345 167.733,266.388 167.733,266.388 167.200 C 266.388 166.870,266.213 166.330,266.000 166.000 C 265.655 165.467,265.612 165.467,265.612 166.000 M331.245 166.774 C 332.259 167.411,333.579 168.533,334.177 169.266 C 334.775 170.000,335.085 170.240,334.865 169.800 C 334.178 168.423,330.682 165.583,329.705 165.608 C 329.537 165.612,330.230 166.137,331.245 166.774 M68.117 168.406 C 66.652 169.779,64.800 172.120,64.800 172.598 C 64.800 172.775,65.319 172.203,65.954 171.327 C 66.588 170.451,67.800 169.164,68.645 168.467 C 69.491 167.770,70.006 167.201,69.791 167.202 C 69.576 167.203,68.823 167.745,68.117 168.406 M133.064 169.300 C 132.939 170.235,132.984 171.720,133.164 172.600 C 133.440 173.954,133.495 173.693,133.521 170.900 C 133.554 167.244,133.407 166.729,133.064 169.300 M266.534 171.200 C 266.534 172.850,266.605 173.525,266.691 172.700 C 266.778 171.875,266.778 170.525,266.691 169.700 C 266.605 168.875,266.534 169.550,266.534 171.200 M336.199 176.428 C 336.198 178.380,336.320 179.668,336.471 179.289 C 336.842 178.354,336.859 173.912,336.494 173.339 C 336.332 173.086,336.199 174.476,336.199 176.428 M64.267 173.467 C 64.120 173.613,64.018 174.288,64.041 174.967 L 64.082 176.200 64.410 174.803 C 64.753 173.347,64.717 173.016,64.267 173.467 M265.472 176.068 C 264.616 178.309,263.100 179.788,260.844 180.584 C 258.494 181.414,141.549 181.519,139.182 180.694 C 136.819 179.870,135.833 179.002,134.706 176.751 C 134.114 175.568,133.623 174.895,133.615 175.255 C 133.590 176.347,136.110 179.716,137.600 180.584 C 139.291 181.570,257.284 182.135,260.600 181.173 C 263.361 180.373,266.870 176.410,266.309 174.727 C 266.226 174.477,265.849 175.080,265.472 176.068 M64.006 179.633 C 64.009 180.165,64.189 180.870,64.406 181.200 C 64.682 181.622,64.723 181.385,64.542 180.400 C 64.225 178.675,63.998 178.349,64.006 179.633 M124.400 214.215 C 118.427 215.141,115.951 216.154,112.495 219.085 C 109.377 221.729,105.975 227.326,106.510 228.931 C 106.590 229.169,106.972 228.393,107.360 227.206 C 109.324 221.203,114.332 216.962,121.600 215.149 C 124.911 214.323,275.057 214.333,278.600 215.160 C 283.699 216.349,288.569 219.577,291.335 223.600 C 291.718 224.156,291.857 224.245,291.649 223.800 C 289.380 218.942,283.411 215.373,275.589 214.198 C 270.023 213.362,129.801 213.377,124.400 214.215 M292.238 225.400 C 292.375 225.840,292.673 226.830,292.900 227.600 C 293.127 228.370,293.389 228.786,293.482 228.524 C 293.575 228.262,293.277 227.272,292.820 226.324 C 292.364 225.376,292.102 224.960,292.238 225.400 M293.668 230.000 C 293.662 230.550,293.811 231.360,294.000 231.800 L 294.344 232.600 294.332 231.800 C 294.326 231.360,294.176 230.550,294.000 230.000 L 293.680 229.000 293.668 230.000 M105.882 230.750 C 105.727 231.493,105.620 232.572,105.644 233.150 C 105.673 233.842,105.810 233.587,106.047 232.400 C 106.245 231.410,106.352 230.330,106.285 230.000 C 106.219 229.670,106.038 230.007,105.882 230.750 M294.529 270.800 C 294.529 291.370,294.657 306.850,294.812 305.200 C 294.968 303.550,295.095 288.070,295.095 270.800 C 295.095 253.530,294.968 238.050,294.812 236.400 C 294.657 234.750,294.529 250.230,294.529 270.800 M133.515 234.728 C 133.138 234.878,163.056 235.000,200.000 235.000 C 236.944 235.000,266.862 234.878,266.485 234.728 C 266.108 234.579,236.190 234.456,200.000 234.456 C 163.810 234.456,133.892 234.579,133.515 234.728 M105.391 270.000 C 105.391 289.470,105.440 297.435,105.500 287.700 C 105.560 277.965,105.560 262.035,105.500 252.300 C 105.440 242.565,105.391 250.530,105.391 270.000 M130.147 236.628 C 129.406 237.414,128.808 238.359,128.818 238.728 C 128.827 239.100,129.187 238.735,129.622 237.911 C 130.054 237.091,130.901 236.154,131.504 235.827 C 132.107 235.500,132.351 235.225,132.047 235.216 C 131.743 235.207,130.888 235.843,130.147 236.628 M268.681 235.984 C 271.548 237.732,271.400 235.839,271.400 270.662 C 271.400 287.856,271.532 301.716,271.694 301.462 C 272.348 300.434,272.046 240.485,271.379 238.887 C 270.637 237.112,268.897 235.199,268.025 235.201 C 267.681 235.202,267.975 235.554,268.681 235.984 M128.252 240.500 C 127.918 241.745,127.992 299.637,128.328 300.485 C 128.478 300.861,128.600 287.316,128.600 270.385 C 128.600 253.453,128.576 239.600,128.547 239.600 C 128.517 239.600,128.385 240.005,128.252 240.500 M128.801 302.269 C 128.797 303.799,132.321 306.430,134.280 306.360 C 135.263 306.325,135.216 306.276,133.893 305.965 C 131.910 305.497,130.457 304.513,129.545 303.017 C 129.137 302.348,128.802 302.011,128.801 302.269 M269.541 304.053 C 268.739 304.904,268.230 305.600,268.410 305.600 C 268.861 305.600,271.200 303.226,271.200 302.769 C 271.200 302.286,271.231 302.262,269.541 304.053 M265.800 306.000 L 264.600 306.305 265.876 306.353 C 266.578 306.379,267.264 306.220,267.400 306.000 C 267.674 305.557,267.540 305.557,265.800 306.000 M105.640 307.833 C 105.662 308.695,105.833 309.850,106.021 310.400 C 106.242 311.048,106.280 310.555,106.131 309.000 C 105.863 306.220,105.582 305.551,105.640 307.833 M168.100 306.700 C 185.645 306.758,214.355 306.758,231.900 306.700 C 249.445 306.642,235.090 306.595,200.000 306.595 C 164.910 306.595,150.555 306.642,168.100 306.700 M293.888 309.733 C 293.730 310.136,293.611 310.856,293.625 311.333 C 293.649 312.156,293.671 312.150,294.040 311.225 C 294.254 310.689,294.373 309.969,294.303 309.625 C 294.199 309.111,294.125 309.130,293.888 309.733 M106.415 312.126 C 106.302 317.542,118.056 327.910,122.474 326.291 C 122.763 326.185,122.460 325.980,121.800 325.835 C 114.869 324.315,109.943 320.395,107.680 314.600 C 106.993 312.840,106.424 311.727,106.415 312.126 M292.849 313.862 C 291.308 319.436,285.275 324.435,278.400 325.835 C 277.630 325.992,277.221 326.197,277.492 326.291 C 279.393 326.950,286.407 323.516,289.209 320.553 C 291.240 318.406,293.830 313.657,293.489 312.705 C 293.390 312.427,293.102 312.948,292.849 313.862 M125.200 326.820 C 126.190 326.997,127.720 327.132,128.600 327.120 L 130.200 327.100 128.400 326.780 C 127.410 326.603,125.880 326.468,125.000 326.480 L 123.400 326.500 125.200 326.820 M271.600 326.800 L 270.200 327.095 271.600 327.118 C 272.370 327.130,273.810 326.997,274.800 326.820 L 276.600 326.500 274.800 326.503 C 273.810 326.504,272.370 326.638,271.600 326.800 " stroke="none" fill="#ec94a4" fill-rule="evenodd"></path><path id="path4" d="M193.696 70.332 C 193.420 70.508,194.320 70.582,195.696 70.497 C 199.090 70.287,199.520 70.069,196.600 70.038 C 195.280 70.024,193.973 70.156,193.696 70.332 M199.800 70.203 C 200.685 70.511,205.172 70.629,204.704 70.332 C 204.427 70.156,203.120 70.024,201.800 70.038 C 200.480 70.052,199.580 70.126,199.800 70.203 M185.820 73.628 C 183.546 75.070,181.818 76.836,178.800 80.801 C 177.590 82.390,176.420 83.896,176.200 84.147 C 174.967 85.554,174.578 86.217,175.338 85.619 C 175.745 85.300,177.032 83.770,178.199 82.219 C 181.654 77.630,183.652 75.549,186.159 73.929 C 187.460 73.088,188.351 72.400,188.140 72.400 C 187.929 72.400,186.885 72.953,185.820 73.628 M214.661 75.904 C 215.794 76.947,217.765 79.150,219.040 80.800 C 222.008 84.642,224.979 88.158,226.976 90.194 C 227.843 91.077,228.183 91.350,227.731 90.800 C 227.279 90.250,225.490 88.079,223.755 85.976 C 222.020 83.873,219.972 81.353,219.205 80.376 C 217.239 77.871,213.476 74.011,213.000 74.010 C 212.780 74.009,213.527 74.862,214.661 75.904 M172.927 88.112 C 172.226 89.041,171.326 90.162,170.927 90.604 C 167.952 93.894,165.200 97.152,165.200 97.382 C 165.200 97.743,165.554 97.359,169.778 92.400 C 171.746 90.090,173.713 87.795,174.148 87.300 C 174.583 86.805,174.773 86.406,174.570 86.412 C 174.366 86.419,173.627 87.184,172.927 88.112 M230.043 93.943 C 232.290 96.427,245.701 109.757,247.809 111.600 C 248.689 112.370,250.848 114.272,252.605 115.826 C 256.089 118.908,264.519 125.897,265.800 126.768 C 266.963 127.557,264.110 124.983,260.737 122.200 C 249.880 113.241,237.261 101.428,230.932 94.300 C 229.808 93.035,228.754 92.000,228.588 92.000 C 228.423 92.000,229.077 92.874,230.043 93.943 M196.320 95.245 C 195.264 96.370,194.400 97.474,194.400 97.698 C 194.400 97.921,195.128 97.191,196.017 96.074 C 197.739 93.911,198.684 93.382,200.050 93.816 C 200.622 93.997,200.811 93.941,200.626 93.643 C 199.961 92.565,198.233 93.208,196.320 95.245 M203.662 97.300 C 204.166 98.015,204.898 98.949,205.289 99.375 C 205.680 99.802,206.000 100.297,206.000 100.475 C 206.000 100.654,206.192 100.800,206.427 100.800 C 206.661 100.800,206.005 99.720,204.968 98.400 C 202.947 95.829,202.153 95.159,203.662 97.300 M157.962 104.500 C 148.542 113.697,145.369 116.646,139.996 121.200 C 138.568 122.410,137.200 123.580,136.956 123.800 C 132.356 127.942,120.913 136.528,115.091 140.206 C 114.052 140.863,113.201 141.540,113.201 141.712 C 113.198 142.794,131.273 129.251,140.504 121.256 C 147.024 115.608,164.560 98.861,164.000 98.816 C 163.890 98.808,161.173 101.365,157.962 104.500 M188.335 105.300 C 184.557 110.062,179.425 115.773,173.523 121.780 C 170.940 124.409,168.882 126.616,168.951 126.684 C 169.399 127.132,183.675 111.803,188.586 105.600 C 191.611 101.781,191.741 101.600,191.484 101.600 C 191.367 101.600,189.950 103.265,188.335 105.300 M208.851 103.900 C 209.153 104.285,209.495 104.690,209.610 104.800 C 209.726 104.910,210.806 106.161,212.010 107.580 C 216.406 112.761,221.735 118.262,230.433 126.600 C 232.499 128.580,230.314 126.240,225.579 121.400 C 216.961 112.591,212.222 107.474,210.121 104.705 C 209.504 103.893,208.843 103.223,208.651 103.215 C 208.459 103.207,208.549 103.515,208.851 103.900 M266.815 127.473 C 266.824 127.653,267.589 128.337,268.515 128.993 C 275.829 134.172,283.777 139.637,284.800 140.192 C 286.200 140.951,284.380 139.573,280.800 137.164 C 278.710 135.757,276.820 134.460,276.600 134.281 C 276.380 134.103,274.580 132.793,272.600 131.372 C 270.620 129.950,268.505 128.418,267.900 127.966 C 267.295 127.515,266.807 127.293,266.815 127.473 M162.784 132.132 C 155.878 138.704,149.412 144.243,141.224 150.600 C 137.237 153.696,134.369 156.101,135.600 155.318 C 136.378 154.822,144.538 148.679,144.800 148.391 C 144.910 148.270,146.440 147.012,148.200 145.595 C 149.960 144.177,151.600 142.834,151.844 142.609 C 152.089 142.384,152.899 141.676,153.644 141.036 C 157.230 137.956,166.079 129.545,165.910 129.376 C 165.848 129.315,164.441 130.555,162.784 132.132 M234.434 130.300 C 234.452 130.465,235.217 131.222,236.134 131.982 L 237.800 133.363 236.219 131.682 C 234.593 129.952,234.376 129.784,234.434 130.300 M238.882 134.502 C 239.387 134.998,241.510 136.838,243.600 138.590 C 245.690 140.343,247.490 141.880,247.600 142.007 C 248.367 142.892,262.481 153.737,266.000 156.146 C 268.332 157.742,264.517 154.649,259.800 151.118 C 253.418 146.342,247.686 141.680,241.338 136.100 C 238.595 133.689,236.995 132.648,238.882 134.502 M111.429 142.609 C 111.005 142.929,110.738 143.271,110.835 143.369 C 110.932 143.466,111.459 143.202,112.006 142.782 C 112.553 142.361,112.820 142.020,112.600 142.022 C 112.380 142.024,111.853 142.288,111.429 142.609 M288.794 142.782 C 289.341 143.202,289.868 143.466,289.965 143.369 C 290.191 143.142,288.729 142.027,288.200 142.022 C 287.980 142.020,288.247 142.361,288.794 142.782 M108.085 144.850 C 106.155 146.217,97.496 151.603,94.900 153.051 C 93.965 153.573,92.345 154.478,91.300 155.061 C 90.255 155.645,88.410 156.647,87.200 157.288 C 85.127 158.386,83.962 159.200,84.463 159.200 C 85.401 159.200,106.723 146.612,109.800 144.242 C 111.275 143.105,109.821 143.621,108.085 144.850 M290.400 143.790 C 290.400 143.894,290.985 144.265,291.700 144.614 L 293.000 145.248 292.000 144.433 C 291.037 143.648,290.400 143.392,290.400 143.790 M294.400 146.170 C 294.400 146.341,300.300 150.000,300.576 150.000 C 300.657 150.000,301.865 150.654,303.262 151.453 C 307.587 153.929,317.299 159.200,317.535 159.200 C 318.073 159.200,316.799 158.353,314.200 156.983 C 312.660 156.171,310.590 155.049,309.600 154.488 C 304.905 151.831,298.654 148.400,298.507 148.400 C 298.418 148.400,297.559 147.860,296.600 147.200 C 294.926 146.049,294.400 145.802,294.400 146.170 M133.185 156.832 L 131.800 158.063 133.088 157.213 C 134.230 156.459,135.093 155.600,134.708 155.600 C 134.632 155.600,133.947 156.154,133.185 156.832 M266.950 156.720 C 267.110 156.978,268.069 157.760,269.082 158.457 C 271.479 160.106,271.040 159.395,268.563 157.616 C 267.516 156.865,266.791 156.461,266.950 156.720 M130.400 158.800 C 129.850 159.230,129.597 159.586,129.838 159.591 C 130.079 159.596,130.602 159.240,131.000 158.800 C 131.912 157.792,131.688 157.792,130.400 158.800 M81.676 160.283 C 80.728 160.835,80.032 161.365,80.129 161.463 C 80.315 161.648,83.128 160.184,83.780 159.562 C 84.475 158.900,83.450 159.251,81.676 160.283 M318.000 159.362 C 318.000 159.696,323.648 162.485,323.872 162.261 C 323.977 162.156,322.834 161.470,321.331 160.735 C 317.841 159.029,318.000 159.094,318.000 159.362 M200.000 159.997 C 265.799 160.217,261.808 160.061,264.109 162.508 C 264.777 163.219,265.133 163.438,264.899 162.996 C 264.279 161.821,263.168 160.913,261.498 160.215 C 260.192 159.669,253.230 159.611,199.713 159.697 L 139.400 159.795 200.000 159.997 M126.900 161.240 C 124.575 162.886,124.742 163.148,127.100 161.554 C 129.446 159.969,129.413 159.996,128.967 160.018 C 128.765 160.028,127.835 160.578,126.900 161.240 M273.089 161.230 C 273.578 161.739,274.078 162.055,274.201 161.932 C 274.324 161.809,273.924 161.392,273.312 161.006 L 272.200 160.304 273.089 161.230 M136.064 161.626 C 134.690 162.906,133.133 165.585,133.330 166.330 C 133.486 166.920,133.513 166.915,133.554 166.286 C 133.613 165.372,134.619 163.751,136.151 162.100 C 137.495 160.652,137.439 160.346,136.064 161.626 M274.802 162.296 C 274.805 162.935,297.817 177.600,298.817 177.600 C 299.028 177.600,299.200 177.759,299.200 177.953 C 299.200 178.148,299.515 178.410,299.900 178.536 C 300.285 178.662,301.320 179.195,302.200 179.720 C 303.080 180.245,306.860 182.260,310.600 184.198 C 314.340 186.136,317.629 187.900,317.910 188.118 C 318.190 188.336,318.516 188.418,318.633 188.300 C 318.751 188.183,315.641 186.417,311.724 184.376 C 307.806 182.335,302.828 179.616,300.663 178.333 C 298.497 177.050,296.666 176.000,296.592 176.000 C 296.460 176.000,293.418 174.134,286.800 169.995 C 284.930 168.826,281.465 166.547,279.100 164.931 C 276.735 163.315,274.801 162.129,274.802 162.296 M74.098 164.351 C 70.598 166.166,68.886 167.228,70.615 166.512 C 72.235 165.840,78.000 162.783,78.000 162.596 C 78.000 162.317,78.150 162.249,74.098 164.351 M326.033 163.362 C 326.495 163.812,332.370 166.676,332.172 166.354 C 331.934 165.970,326.640 163.200,326.143 163.200 C 325.991 163.200,325.942 163.273,326.033 163.362 M121.400 165.064 C 118.742 166.889,106.956 174.242,103.269 176.376 C 101.657 177.308,100.432 178.165,100.546 178.279 C 100.660 178.394,101.259 178.133,101.877 177.701 C 102.495 177.268,103.181 176.843,103.401 176.757 C 104.602 176.287,122.740 164.957,123.567 164.161 C 124.358 163.398,123.004 163.963,121.400 165.064 M66.929 168.900 C 63.766 172.150,62.253 177.117,63.464 180.276 C 63.684 180.851,63.800 179.888,63.800 177.476 C 63.800 173.196,64.590 171.401,67.763 168.477 C 68.763 167.555,69.445 166.800,69.277 166.800 C 69.110 166.800,68.053 167.745,66.929 168.900 M334.105 168.400 C 338.160 173.571,337.750 181.088,333.162 185.676 C 332.104 186.734,331.391 187.600,331.579 187.600 C 332.430 187.600,335.933 183.123,336.545 181.253 C 338.114 176.457,337.147 171.117,334.161 168.089 L 332.694 166.600 334.105 168.400 M267.000 171.223 C 267.000 172.954,267.122 174.062,267.272 173.685 C 267.642 172.753,267.657 169.109,267.294 168.538 C 267.132 168.284,267.000 169.492,267.000 171.223 M132.528 170.800 C 132.528 172.230,132.601 172.815,132.689 172.100 C 132.778 171.385,132.778 170.215,132.689 169.500 C 132.601 168.785,132.528 169.370,132.528 170.800 M133.209 175.644 C 133.204 175.999,133.861 177.293,134.669 178.520 C 137.478 182.784,131.017 182.401,199.953 182.396 L 259.800 182.392 261.851 181.437 C 262.979 180.912,264.022 180.288,264.168 180.051 C 264.315 179.814,263.489 180.111,262.334 180.710 L 260.234 181.800 200.432 181.904 C 146.813 181.997,140.433 181.942,138.727 181.376 C 136.646 180.684,135.109 179.149,133.947 176.600 C 133.546 175.720,133.214 175.290,133.209 175.644 M265.538 177.228 C 264.960 178.313,264.611 179.200,264.764 179.200 C 265.066 179.200,266.914 175.580,266.713 175.380 C 266.645 175.312,266.117 176.144,265.538 177.228 M95.800 180.664 C 93.600 181.887,89.773 183.886,87.296 185.107 C 84.819 186.327,82.875 187.408,82.974 187.508 C 83.074 187.608,86.541 185.932,90.678 183.783 C 94.815 181.635,98.604 179.680,99.097 179.439 C 99.590 179.197,99.995 178.865,99.997 178.700 C 100.001 178.302,100.318 178.153,95.800 180.664 M64.000 181.860 C 64.000 183.248,69.300 189.200,70.536 189.200 C 71.025 189.200,70.839 189.025,68.657 187.425 C 67.808 186.802,66.413 185.210,65.557 183.885 C 64.701 182.560,64.000 181.649,64.000 181.860 M329.200 188.400 C 328.430 188.822,328.070 189.170,328.400 189.174 C 328.730 189.179,329.450 188.830,330.000 188.400 C 331.257 187.417,330.996 187.417,329.200 188.400 M71.600 189.597 C 72.141 189.950,75.564 190.199,75.167 189.856 C 75.075 189.777,74.100 189.599,73.000 189.459 C 71.635 189.286,71.190 189.330,71.600 189.597 M76.400 189.600 L 75.400 189.920 76.400 189.954 C 76.950 189.973,77.670 189.813,78.000 189.600 C 78.764 189.106,77.942 189.106,76.400 189.600 M323.900 189.482 C 324.395 189.578,325.205 189.578,325.700 189.482 C 326.195 189.387,325.790 189.309,324.800 189.309 C 323.810 189.309,323.405 189.387,323.900 189.482 M124.200 213.621 C 123.672 213.862,124.216 213.904,125.800 213.743 C 127.120 213.609,128.275 213.432,128.367 213.350 C 128.721 213.031,124.956 213.276,124.200 213.621 M271.633 213.347 C 271.725 213.428,272.970 213.602,274.400 213.735 C 276.076 213.891,276.716 213.848,276.200 213.616 C 275.447 213.277,271.275 213.031,271.633 213.347 M118.091 214.974 C 114.683 216.240,111.425 218.553,109.605 221.000 C 109.278 221.440,109.917 220.971,111.026 219.958 C 114.079 217.168,116.138 215.956,119.522 214.954 C 121.215 214.453,122.150 214.043,121.600 214.042 C 121.050 214.042,119.471 214.461,118.091 214.974 M279.757 214.609 C 284.162 215.818,288.376 218.667,290.984 222.200 C 291.341 222.683,291.580 222.792,291.587 222.474 C 291.642 220.193,282.021 213.901,278.685 214.036 C 278.198 214.055,278.681 214.313,279.757 214.609 M106.249 227.015 C 106.112 227.373,106.015 227.966,106.034 228.333 C 106.053 228.700,106.227 228.469,106.421 227.820 C 106.798 226.558,106.665 225.933,106.249 227.015 M105.449 229.815 C 105.312 230.173,105.221 230.946,105.246 231.533 C 105.280 232.332,105.370 232.198,105.604 231.000 C 105.935 229.300,105.862 228.740,105.449 229.815 M294.028 229.476 C 294.118 230.515,294.744 231.396,294.772 230.524 C 294.787 230.042,294.620 229.536,294.400 229.400 C 294.180 229.264,294.013 229.298,294.028 229.476 M295.000 270.800 C 295.000 291.218,295.132 307.716,295.294 307.462 C 295.456 307.208,295.588 290.710,295.588 270.800 C 295.588 250.890,295.456 234.392,295.294 234.138 C 295.132 233.884,295.000 250.382,295.000 270.800 M104.652 234.900 C 104.298 236.220,104.440 303.987,104.800 305.400 C 104.968 306.060,105.127 290.265,105.153 270.300 C 105.179 250.335,105.131 234.000,105.047 234.000 C 104.962 234.000,104.785 234.405,104.652 234.900 M134.600 235.200 C 133.940 235.368,163.370 235.509,200.000 235.513 C 236.630 235.517,266.150 235.376,265.600 235.200 C 264.324 234.791,136.207 234.791,134.600 235.200 M130.922 236.587 C 130.305 237.130,130.025 237.580,130.300 237.587 C 130.575 237.594,130.800 237.411,130.800 237.181 C 130.800 236.950,131.385 236.507,132.100 236.196 C 132.815 235.886,133.095 235.624,132.722 235.616 C 132.350 235.607,131.540 236.044,130.922 236.587 M267.994 236.301 C 268.761 236.685,269.590 237.408,269.835 237.907 C 270.418 239.094,270.800 239.457,270.800 238.827 C 270.800 238.048,268.174 235.600,267.340 235.601 C 266.869 235.601,267.107 235.855,267.994 236.301 M270.907 270.600 C 270.907 287.760,271.047 300.900,271.218 299.800 C 271.390 298.700,271.530 285.560,271.530 270.600 C 271.530 255.640,271.390 242.500,271.218 241.400 C 271.047 240.300,270.907 253.440,270.907 270.600 M128.990 270.600 C 128.990 287.100,129.039 293.908,129.100 285.730 C 129.160 277.551,129.160 264.051,129.100 255.730 C 129.039 247.408,128.990 254.100,128.990 270.600 M133.600 305.600 C 135.067 306.070,136.894 306.070,135.800 305.600 C 135.360 305.411,134.460 305.262,133.800 305.268 C 132.630 305.279,132.625 305.288,133.600 305.600 M264.200 305.600 C 263.106 306.070,264.933 306.070,266.400 305.600 C 267.375 305.288,267.370 305.279,266.200 305.268 C 265.540 305.262,264.640 305.411,264.200 305.600 M105.200 309.710 C 105.200 310.503,105.369 311.257,105.576 311.385 C 105.801 311.524,105.859 311.009,105.720 310.109 C 105.410 308.100,105.200 307.939,105.200 309.710 M294.302 311.000 C 294.197 311.550,294.266 312.000,294.455 312.000 C 294.645 312.000,294.800 311.550,294.800 311.000 C 294.800 310.450,294.731 310.000,294.647 310.000 C 294.562 310.000,294.407 310.450,294.302 311.000 M106.028 313.076 C 106.013 313.558,106.180 314.064,106.400 314.200 C 106.873 314.492,106.873 314.101,106.400 313.000 C 106.069 312.229,106.055 312.231,106.028 313.076 M107.600 317.028 C 107.600 317.942,111.498 322.503,112.938 323.274 C 113.358 323.499,112.711 322.707,111.499 321.515 C 110.288 320.323,109.000 318.774,108.638 318.074 C 108.032 316.902,107.600 316.467,107.600 317.028 M291.243 318.530 C 290.309 320.041,287.421 322.839,286.023 323.587 C 285.533 323.850,285.227 324.160,285.343 324.276 C 285.612 324.546,287.842 322.971,289.407 321.407 C 290.939 319.874,292.547 317.614,292.289 317.356 C 292.180 317.247,291.710 317.776,291.243 318.530 M120.000 326.400 C 120.330 326.613,120.870 326.788,121.200 326.788 C 121.733 326.788,121.733 326.745,121.200 326.400 C 120.870 326.187,120.330 326.012,120.000 326.012 C 119.467 326.012,119.467 326.055,120.000 326.400 M279.000 326.400 C 278.229 326.731,278.231 326.745,279.076 326.772 C 279.558 326.787,280.064 326.620,280.200 326.400 C 280.492 325.927,280.101 325.927,279.000 326.400 M124.400 327.197 C 124.941 327.550,128.364 327.799,127.967 327.456 C 127.875 327.377,126.900 327.199,125.800 327.059 C 124.435 326.886,123.990 326.930,124.400 327.197 M273.600 327.200 L 272.200 327.495 273.600 327.541 C 274.370 327.567,275.270 327.413,275.600 327.200 C 276.327 326.730,275.833 326.730,273.600 327.200 " stroke="none" fill="#e45161" fill-rule="evenodd"></path></g></svg>